PathFileType	4	(X/Y/Z)	 s11c0403.trc
DataRate	CameraRate	NumFrames	NumMarkers	Units	OrigDataRate	OrigDataStartFrame	OrigNumFrames
200	200	6	48	mm	200	1	2000
Frame#	Time	racr			lacr			c7			jug			rlel			rdr			llel			ldr			s2			lic			ric			lasi			rasi			rpsi			lpsi			rgt			lgt			rth1			rth2			rth3			rth4			rlfc			rmfc			rsh1			rsh2			rsh3			rsh4			rlmal			rcal			rtoe			rmt5			lth1			lth2			lth4			lth3			llfc			lmfc			llmal			lcal			lmt5			lsh1			lsh2			lsh3			lsh4			ltoe			SBIKE			LBIKE			RBIKE			
		X1	Y1	Z1	X2	Y2	Z2	X3	Y3	Z3	X4	Y4	Z4	X5	Y5	Z5	X6	Y6	Z6	X7	Y7	Z7	X8	Y8	Z8	X9	Y9	Z9	X10	Y10	Z10	X11	Y11	Z11	X12	Y12	Z12	X13	Y13	Z13	X14	Y14	Z14	X15	Y15	Z15	X16	Y16	Z16	X17	Y17	Z17	X18	Y18	Z18	X19	Y19	Z19	X20	Y20	Z20	X21	Y21	Z21	X22	Y22	Z22	X23	Y23	Z23	X24	Y24	Z24	X25	Y25	Z25	X26	Y26	Z26	X27	Y27	Z27	X28	Y28	Z28	X29	Y29	Z29	X30	Y30	Z30	X31	Y31	Z31	X32	Y32	Z32	X33	Y33	Z33	X34	Y34	Z34	X35	Y35	Z35	X36	Y36	Z36	X37	Y37	Z37	X38	Y38	Z38	X39	Y39	Z39	X40	Y40	Z40	X41	Y41	Z41	X42	Y42	Z42	X43	Y43	Z43	X44	Y44	Z44	X45	Y45	Z45	X46	Y46	Z46	X47	Y47	Z47	X48	Y48	Z48	
1	0.0050	422.512102	1429.292360	-85.171685	420.127564	1448.330094	-404.112502	321.845257	1551.876475	-245.627800	373.542514	1386.671865	-252.714483	553.044676	1183.879325	-17.517824	774.356602	973.339308	-36.142066	539.254762	1169.761361	-479.318119	791.616145	961.093023	-450.690833	-141.060479	1174.385886	-254.978709	71.265178	1226.187315	-451.071087	72.297557	1205.653323	-50.550164	117.822211	1154.593781	-415.510457	123.290978	1152.538299	-83.371219	-118.601715	1248.450540	-196.065703	-115.948710	1246.323260	-289.322001	25.750648	1042.177945	-36.431441	13.422316	1093.980024	-469.727323	121.894971	933.160831	-29.677327	195.617532	882.932213	-36.636660	234.017765	805.156524	-50.430666	222.663886	907.311381	-44.447299	299.057220	718.838957	-64.960292	305.308179	701.742473	-190.256095	208.401564	585.272877	-57.174850	179.416388	504.144792	-77.865288	114.308417	446.472223	-83.038943	202.316577	494.451046	-108.936309	28.211994	345.423672	-101.297157	-36.362381	346.833282	-151.771797	222.209078	225.194253	-136.570037	145.212721	221.825268	-70.138210	154.261450	1035.917907	-483.549939	239.018832	1027.883395	-478.723314	252.641085	1060.551570	-466.382771	311.695892	974.520118	-475.991299	436.693517	907.716071	-447.190153	447.053528	904.387390	-320.424347	264.860175	512.143505	-410.172724	207.481514	465.339193	-372.568411	412.299983	426.527563	-438.168889	387.207170	790.298792	-462.204987	379.646299	706.564693	-444.146040	329.871549	633.586155	-435.829010	408.604429	698.680573	-420.979561	505.513513	454.391342	-369.700042	-169.960881	971.847340	-174.037757	0.957651	82.630395	-460.646006	-15.505546	81.063032	-62.386890	
2	0.0100	422.454035	1429.302501	-85.317009	420.083978	1448.277923	-404.311358	321.709581	1552.008222	-245.904436	373.487542	1386.652729	-252.880302	553.028232	1183.896616	-17.623751	774.381253	973.345913	-36.242039	539.180099	1169.636359	-479.321209	791.580963	961.050076	-450.603346	-141.079482	1174.365421	-254.947457	71.116050	1226.136559	-451.010500	72.319770	1205.646199	-50.595924	117.649790	1154.525600	-415.494383	123.320350	1152.613384	-83.445170	-118.640379	1248.475180	-196.015776	-116.006024	1246.294254	-289.289926	25.696675	1042.094438	-36.447234	13.321500	1094.097737	-469.742176	121.721602	933.007273	-29.697175	195.415250	882.667577	-36.662820	233.793382	804.890895	-50.514703	222.461286	907.043517	-44.485524	298.736992	718.554120	-65.054394	305.013429	701.507682	-190.346050	208.247313	584.834737	-57.229925	179.367427	503.644023	-77.899611	114.396131	445.902779	-83.061240	202.267399	493.962170	-109.015869	28.443383	344.714224	-101.320646	-36.193506	346.076794	-151.711080	222.561723	224.634449	-136.649575	145.560623	221.247879	-70.124548	154.258153	1036.169196	-483.535741	239.020468	1028.330585	-478.779034	252.578975	1061.045192	-466.441227	311.751714	974.972999	-476.109661	436.832907	908.317258	-447.364410	447.228024	904.966773	-320.550914	264.620814	512.931521	-410.199229	207.237422	466.094486	-372.468655	411.932547	427.161538	-438.184863	387.230506	790.980230	-462.299091	379.624640	707.143068	-444.202929	329.764559	634.184617	-435.917767	408.582016	699.320731	-421.040886	505.204540	454.897964	-369.733873	-169.704120	971.942841	-173.831875	0.952832	82.596509	-460.608693	-15.497616	81.074193	-62.395195	
3	0.0150	422.356384	1429.319035	-85.442446	420.044007	1448.226565	-404.520652	321.686816	1552.076268	-246.050343	373.462738	1386.698956	-253.042361	552.977933	1183.894260	-17.722923	774.402173	973.323928	-36.317121	539.127273	1169.514261	-479.307893	791.560718	961.027438	-450.556375	-141.148304	1174.374076	-254.808601	71.029958	1226.094832	-451.051476	72.355898	1205.730487	-50.644737	117.541281	1154.486293	-415.526498	123.361687	1152.695313	-83.491555	-118.645681	1248.459369	-195.974321	-116.070359	1246.296104	-289.249896	25.659154	1042.025878	-36.459314	13.260335	1094.230216	-469.742891	121.559204	932.858233	-29.698590	195.237045	882.389148	-36.703192	233.525147	804.661797	-50.579295	222.343312	906.821056	-44.490298	298.432342	718.309236	-65.121852	304.682707	701.194407	-190.339263	208.051480	584.501138	-57.285559	179.327244	503.290462	-77.935643	114.463101	445.338779	-83.079581	202.215508	493.509674	-109.060902	28.653546	344.065051	-101.285998	-35.965554	345.312118	-151.769236	222.845441	224.238773	-136.689130	145.944773	220.689956	-70.136253	154.263411	1036.418689	-483.520294	239.021348	1028.698987	-478.800971	252.545140	1061.462522	-466.474089	311.816043	975.490426	-476.251009	436.966710	908.963700	-447.506758	447.427302	905.572211	-320.699631	264.424366	513.726304	-410.264044	206.899034	467.098258	-372.583530	411.592023	427.745120	-438.191435	387.265322	791.632410	-462.425417	379.580000	707.796180	-444.188263	329.668734	634.986509	-435.966093	408.554704	699.918729	-421.095201	504.907281	455.378912	-369.765450	-169.818650	971.898444	-173.974152	0.951535	82.596927	-460.593941	-15.483154	81.064819	-62.397020	
4	0.0200	422.285848	1429.325772	-85.567191	420.527115	1448.829394	-405.662114	321.642557	1552.136233	-246.225677	373.471401	1386.750306	-253.171941	552.937410	1183.898132	-17.801145	774.425791	973.311757	-36.413597	539.081550	1169.360816	-479.253693	791.295610	960.692451	-449.821811	-140.884040	1174.132181	-254.605760	70.961157	1226.072909	-451.069787	72.420303	1205.828950	-50.712220	117.392862	1154.433832	-415.492990	123.363055	1152.792402	-83.544499	-118.668411	1248.450715	-195.946669	-117.952540	1246.640943	-288.017258	25.620840	1041.966504	-36.468160	13.205149	1094.364918	-469.748631	121.394094	932.695503	-29.706029	195.037021	882.202515	-36.727560	233.272732	804.377306	-50.636168	222.196714	906.591849	-44.495711	298.093333	718.018448	-65.207259	304.357434	700.927145	-190.384262	207.886863	584.079545	-57.342379	179.427087	502.865325	-77.881075	114.497405	444.849165	-83.107517	201.933322	493.309139	-109.168216	28.890666	343.408134	-101.317532	-35.700001	344.549607	-151.749097	223.191821	223.761692	-136.619179	146.318683	220.220281	-70.123107	153.793849	1036.793987	-483.736832	239.008338	1029.091246	-478.838483	252.549474	1061.640319	-466.162549	311.858097	975.980178	-476.337674	437.110570	909.551047	-447.643194	447.609188	906.174260	-320.847364	264.191030	514.536183	-410.243291	206.633318	467.903647	-372.575491	411.252273	428.325525	-438.189765	387.328598	792.173305	-462.533188	379.555648	708.541436	-444.447787	329.561080	635.647270	-436.030711	408.357101	702.551183	-422.070717	504.613168	455.798560	-369.762686	-169.878505	971.844484	-174.096686	0.939252	82.591104	-460.592881	-15.491625	81.076780	-62.381742	
5	0.0250	422.165786	1429.160958	-85.644538	420.456669	1448.626960	-405.748250	321.688486	1552.129124	-246.399265	373.454942	1386.520567	-253.351817	552.857590	1183.801919	-17.806725	774.420914	973.189275	-36.293869	538.991985	1169.185746	-479.011983	791.761140	960.649860	-449.248778	-140.894085	1174.214403	-254.579025	70.872477	1226.046670	-451.103234	72.498486	1205.787308	-50.787274	117.214038	1154.355792	-415.394051	123.456940	1152.687788	-83.573726	-118.648885	1248.591809	-195.942128	-117.951552	1246.722551	-287.974957	25.693410	1041.809547	-36.546125	13.127300	1094.189364	-469.880762	121.311497	932.423244	-29.800077	194.900801	881.855598	-36.741257	233.128365	803.972716	-50.730402	222.137411	906.283302	-44.512240	297.849277	717.658832	-65.268626	303.978550	700.600179	-190.512874	207.797461	583.598810	-57.340624	179.421939	502.397801	-78.012660	114.589697	444.185529	-83.116754	201.953218	492.819452	-109.096873	29.177630	342.625162	-101.210261	-35.474947	343.773252	-151.757568	223.655552	223.171616	-136.421038	146.787460	219.478478	-70.083346	153.754728	1036.940939	-483.801621	238.937402	1029.186207	-478.395825	252.473471	1061.925454	-466.127282	311.874087	976.164503	-475.892997	437.207800	909.884166	-447.262702	447.801805	906.601256	-320.888269	263.959669	515.258516	-410.290694	206.264810	468.783605	-372.536032	410.924576	428.894825	-438.185156	387.380721	792.757742	-462.370448	379.503069	709.104610	-444.486032	329.477300	636.345884	-436.100970	408.043355	703.270151	-423.088733	504.275748	456.293766	-369.832599	-169.732438	971.932123	-173.855814	0.983915	82.946593	-460.237249	-15.456630	81.029685	-62.441764	
6	0.0300	422.102779	1429.161105	-85.725281	420.401514	1448.614694	-405.928231	321.674822	1552.171447	-246.539273	373.440521	1386.610088	-253.480266	552.797511	1183.727422	-17.903624	774.422545	973.172726	-36.308184	538.943802	1169.100246	-478.911880	791.744353	960.609645	-449.187444	-140.920542	1174.210929	-254.532165	70.809862	1226.067629	-451.201972	72.532860	1205.811968	-50.831290	117.041598	1154.323852	-415.367006	123.473835	1152.751735	-83.617503	-118.693138	1248.623868	-195.888768	-117.971629	1246.712568	-287.951371	25.636514	1041.736694	-36.560914	13.070828	1094.809554	-469.847717	121.169366	932.257046	-29.824863	194.697371	881.598663	-36.763234	232.837021	803.734884	-50.817244	221.954254	905.989819	-44.486339	297.538183	717.387633	-65.368049	303.597856	700.353324	-190.874842	207.648559	583.183204	-57.393218	179.403483	501.832662	-78.053359	114.627439	443.606989	-83.131968	201.949728	492.328215	-109.095319	29.428174	341.839284	-101.249121	-35.242430	342.934589	-151.812789	224.130508	222.711707	-136.431776	147.179225	218.850053	-70.050833	153.743260	1037.472806	-483.801672	238.956968	1029.810579	-478.543813	252.459830	1062.520868	-466.266722	312.000896	976.908505	-476.257341	437.398360	910.719504	-447.718415	447.997254	907.221367	-321.084447	263.714036	516.216061	-410.349232	206.340052	469.512428	-372.178384	410.582152	429.587360	-438.236599	387.444640	793.522918	-462.670868	379.467485	709.741214	-444.440349	329.319476	637.158653	-436.157535	407.961968	704.014259	-423.216404	503.912049	456.768085	-369.760381	-169.820639	971.850274	-174.019972	1.052979	82.633016	-460.712433	-15.453752	81.044484	-62.423208	
